<?xml version="1.0" encoding="utf-8"?>
<!-- Generator: Adobe Illustrator 27.7.0, SVG Export Plug-In . SVG Version: 6.00 Build 0)  -->
<svg version="1.1" id="Layer_1" xmlns="http://www.w3.org/2000/svg" xmlns:xlink="http://www.w3.org/1999/xlink" x="0px" y="0px"
	 viewBox="0 0 512 512" style="enable-background:new 0 0 512 512;" xml:space="preserve">
<g>
	<path d="M0,204.8v153.6C0,372.54,11.46,384,25.6,384s25.6-11.46,25.6-25.6V204.8c0-14.14-11.46-25.6-25.6-25.6S0,190.66,0,204.8"/>
	<path d="M230.4,76.8v76.8c0,14.14,11.46,25.6,25.6,25.6c14.14,0,25.6-11.46,25.6-25.6V76.8c0-14.14-11.46-25.6-25.6-25.6
		C241.86,51.2,230.4,62.66,230.4,76.8"/>
	<path d="M204.8,102.4h102.4c14.14,0,25.6-11.46,25.6-25.6c0-14.14-11.46-25.6-25.6-25.6H204.8c-14.14,0-25.6,11.46-25.6,25.6
		C179.2,90.94,190.66,102.4,204.8,102.4"/>
	<path d="M76.8,256H25.6C11.46,256,0,267.46,0,281.6s11.46,25.6,25.6,25.6h51.2c14.14,0,25.6-11.46,25.6-25.6S90.94,256,76.8,256"/>
	<path d="M102.4,204.8v25.6h51.2c6.74,0,13.34-2.73,18.1-7.5l43.7-43.7h75.98h-0.01l0,0l0.01,0.01l37.07,74.09l-0.01-0.01
		c8.67,17.34,26.38,28.3,45.77,28.31h0.01h35.38c6.74,0,13.34-2.73,18.1-7.5c4.77-4.77,7.5-11.36,7.5-18.1v-25.6h25.6V384h-25.6
		v-25.6c0-6.74-2.73-13.34-7.5-18.1c-4.77-4.77-11.36-7.5-18.1-7.5h-76.8c-6.74,0-13.34,2.73-18.1,7.5
		c-4.77,4.77-7.5,11.36-7.5,18.1v51.2h-88.7l0,0v0h0l0,0v0h0l0.01,0.01l-43.6-65.41c-4.75-7.12-12.74-11.4-21.3-11.4H128l0-128
		H102.4v25.6V204.8H76.8v153.6c0,6.74,2.73,13.34,7.5,18.1c4.77,4.77,11.36,7.5,18.1,7.5h37.5l36,54.01l0.01,0.01
		c9.5,14.24,25.48,22.78,42.59,22.78h0h88.7c28.29-0.02,51.18-22.91,51.2-51.2V384H384l0,25.6c0,6.74,2.73,13.34,7.5,18.1
		c4.77,4.77,11.36,7.5,18.1,7.5h51.2c28.29-0.02,51.18-22.91,51.2-51.2V230.4c-0.02-28.29-22.91-51.18-51.2-51.2h-51.2
		c-6.74,0-13.34,2.73-18.1,7.5c-4.77,4.77-7.5,11.36-7.5,18.1v25.6h-9.78h0.01v0l-0.01-0.01l-37.07-74.09l0.01,0.01
		c-8.67-17.34-26.38-28.3-45.77-28.31h-0.01H204.8c-6.74,0-13.34,2.73-18.1,7.5L143,179.2l-40.6,0c-6.74,0-13.34,2.73-18.1,7.5
		c-4.77,4.77-7.5,11.36-7.5,18.1H102.4z"/>
</g>
</svg>
