<?xml version="1.0" encoding="utf-8"?>
<!-- Generator: Adobe Illustrator 27.5.0, SVG Export Plug-In . SVG Version: 6.00 Build 0)  -->
<svg version="1.1" id="Layer_1" xmlns="http://www.w3.org/2000/svg" xmlns:xlink="http://www.w3.org/1999/xlink" x="0px" y="0px"
	 viewBox="0 0 512 512" style="enable-background:new 0 0 512 512;" xml:space="preserve">
<g>
	<path d="M96,80c0-8.84,7.16-16,16-16h160c8.84,0,16,7.16,16,16v160c0,8.84-7.16,16-16,16H112c-8.84,0-16-7.16-16-16V80z"/>
	<path d="M32,64C32,28.65,60.65,0,96,0h192c35.35,0,64,28.65,64,64v256c35.35,0,64,28.65,64,64v16c0,8.84,7.16,16,16,16
		s16-7.16,16-16V256h-16c-8.84,0-16-7.16-16-16V140c0-8.84,7.16-16,16-16h47.84c-0.35-15.23-1.7-28.61-6.43-39.1
		c-2.54-6.1-6.95-11.24-12.61-14.66C454.91,66.72,445.95,64,432,64c-8.84,0-16-7.16-16-16s7.16-16,16-16
		c18.05,0,33.09,3.52,45.18,10.75c12.26,7.3,20.29,17.63,25.41,29.02c9.44,20.96,9.41,46.88,9.41,66.59v101.6
		c0.02,8.84-7.13,16.01-15.97,16.03l-0.03,0h-16v144c0,26.51-21.49,48-48,48s-48-21.49-48-48v-16c0-17.67-14.33-32-32-32v128h16
		c8.84,0,16,7.16,16,16s-7.16,16-16,16H16c-8.84,0-16-7.16-16-16s7.16-16,16-16h16V64z M320,64c0-17.67-14.33-32-32-32H96
		c-17.67,0-32,14.33-32,32v416h256V64z"/>
</g>
</svg>
